<?xml version="1.0" encoding="utf-8"?>
<svg version="1.1" id="Layer_1" x="0px" y="0px" width="1080px" height="800px" viewBox="0 0 1080 800" xmlns="http://www.w3.org/2000/svg">
  <g style="" transform="matrix(1.047236, 0, 0, 1.047236, -24.919516, -165.798248)">
    <title>Text</title>
    <path fill="#3FA9F5" stroke="#3FA9F5" stroke-width="4" stroke-miterlimit="10" d="M93.332,910.817 c-3.966,1.983-11.899,3.966-22.063,3.966c-23.551,0-41.276-14.874-41.276-42.267c0-26.153,17.725-43.878,43.631-43.878 c10.412,0,16.981,2.231,19.832,3.718l-2.603,8.801c-4.09-1.983-9.916-3.471-16.857-3.471c-19.584,0-32.599,12.52-32.599,34.459 c0,20.452,11.775,33.591,32.103,33.591c6.57,0,13.263-1.364,17.601-3.471L93.332,910.817z"/>
    <path fill="#3FA9F5" stroke="#3FA9F5" stroke-width="4" stroke-miterlimit="10" d="M120.85,887.267l-8.676,26.277h-11.156 L129.402,830h13.015l28.509,83.543h-11.527l-8.924-26.277H120.85z M148.243,878.838l-8.181-24.046 c-1.86-5.454-3.099-10.413-4.338-15.247h-0.248c-1.239,4.958-2.603,10.04-4.214,15.122l-8.181,24.171H148.243z"/>
    <path fill="#3FA9F5" stroke="#3FA9F5" stroke-width="4" stroke-miterlimit="10" d="M183.2,831.116 c5.454-1.116,13.263-1.735,20.7-1.735c11.527,0,18.964,2.107,24.17,6.817c4.214,3.719,6.569,9.42,6.569,15.866 c0,11.032-6.941,18.346-15.742,21.32v0.371c6.446,2.232,10.288,8.182,12.271,16.858c2.727,11.651,4.711,19.708,6.446,22.93 h-11.156c-1.363-2.355-3.223-9.545-5.578-19.956c-2.479-11.527-6.941-15.866-16.733-16.238h-10.164v36.194H183.2V831.116z M193.984,869.169h11.032c11.527,0,18.841-6.321,18.841-15.866c0-10.783-7.809-15.493-19.212-15.618 c-5.206,0-8.924,0.496-10.66,0.993V869.169z"/>
    <path fill="#3FA9F5" stroke="#3FA9F5" stroke-width="4" stroke-miterlimit="10" d="M293.147,874.375h-32.475v30.12h36.194v9.049 h-46.977V830h45.118v9.049h-34.335v26.402h32.475V874.375z"/>
    <path fill="#3FA9F5" stroke="#3FA9F5" stroke-width="4" stroke-miterlimit="10" d="M337.15,830h44.995v9.049h-34.211v27.766 h31.607v8.924h-31.607v37.805H337.15V830z"/>
    <path fill="#3FA9F5" stroke="#3FA9F5" stroke-width="4" stroke-miterlimit="10" d="M408.3,830v49.457 c0,18.717,8.305,26.65,19.46,26.65c12.395,0,20.328-8.181,20.328-26.65V830h10.908v48.713c0,25.658-13.511,36.194-31.607,36.194 c-17.105,0-29.996-9.792-29.996-35.698V830H408.3z"/>
    <path fill="#3FA9F5" stroke="#3FA9F5" stroke-width="4" stroke-miterlimit="10" d="M477.714,830h10.784v74.495h35.698v9.049 h-46.482V830z"/>
    <path fill="#3FA9F5" stroke="#3FA9F5" stroke-width="4" stroke-miterlimit="10" d="M536.22,830h10.784v74.495h35.698v9.049 H536.22V830z"/>
    <path fill="#3FA9F5" stroke="#3FA9F5" stroke-width="4" stroke-miterlimit="10" d="M691.407,876.854 c-0.619-11.651-1.364-25.657-1.239-36.07h-0.371c-2.852,9.792-6.322,20.204-10.537,31.731l-14.75,40.532h-8.181l-13.51-39.789 c-3.967-11.775-7.313-22.558-9.669-32.475h-0.247c-0.249,10.413-0.868,24.419-1.612,36.938l-2.232,35.822h-10.287L624.597,830 h13.758l14.254,40.409c3.471,10.287,6.322,19.46,8.43,28.137h0.371c2.107-8.429,5.082-17.602,8.801-28.137L685.086,830h13.758 l5.206,83.543h-10.536L691.407,876.854z"/>
    <path fill="#3FA9F5" stroke="#3FA9F5" stroke-width="4" stroke-miterlimit="10" d="M792.057,870.905 c0,28.756-17.477,44.003-38.796,44.003c-22.064,0-37.558-17.105-37.558-42.392c0-26.525,16.486-43.878,38.796-43.878 C777.308,828.638,792.057,846.115,792.057,870.905z M727.231,872.268c0,17.85,9.668,33.839,26.65,33.839 c17.105,0,26.773-15.741,26.773-34.706c0-16.609-8.676-33.963-26.65-33.963C736.155,837.438,727.231,853.924,727.231,872.268z"/>
    <path fill="#3FA9F5" stroke="#3FA9F5" stroke-width="4" stroke-miterlimit="10" d="M 823.821 911.857 L 797.142 830 L 808.793 830 L 821.809 871.153 C 825.404 882.433 828.502 892.596 830.733 902.389 L 830.981 902.389 C 833.335 892.72 836.806 882.185 840.524 871.277 L 854.656 830 L 866.182 830 L 836.31 913.543 L 824.411 913.543 L 823.821 911.857 Z"/>
    <path fill="#3FA9F5" stroke="#3FA9F5" stroke-width="4" stroke-miterlimit="10" d="M886.017,830v83.543h-10.784V830H886.017z"/>
    <path fill="#3FA9F5" stroke="#3FA9F5" stroke-width="4" stroke-miterlimit="10" d="M 904.858 912.11 L 904.858 830 L 916.633 830 L 943.407 872.267 C 949.605 882.059 954.438 890.86 958.405 899.412 L 958.653 899.289 C 957.661 888.133 957.414 877.969 957.414 864.954 L 957.414 830 L 967.578 830 L 967.578 913.543 L 956.67 913.543 L 930.145 871.152 C 924.318 861.855 918.741 852.311 914.526 843.263 L 914.155 843.386 C 914.775 853.922 915.022 863.962 915.022 877.845 L 915.022 913.542 L 904.858 913.542 L 904.858 912.11 Z"/>
    <path fill="#3FA9F5" stroke="#3FA9F5" stroke-width="4" stroke-miterlimit="10" d="M1050.007,909.826 c-4.834,1.735-14.379,4.586-25.658,4.586c-12.643,0-23.055-3.223-31.236-11.032c-7.189-6.941-11.652-18.098-11.652-31.112 c0.125-24.913,17.23-43.134,45.243-43.134c9.668,0,17.228,2.107,20.823,3.842l-2.602,8.8c-4.463-1.983-10.04-3.595-18.469-3.595 c-20.328,0-33.591,12.643-33.591,33.591c0,21.195,12.767,33.714,32.227,33.714c7.065,0,11.9-0.991,14.379-2.231v-24.913h-16.982 v-8.678h27.518V909.826z"/>
  </g>
  <g clip-path="url(#SVGID_2_)" style="" transform="matrix(1.047236, 0, 0, 1.047236, -24.919516, -165.798248)">
    <title>Icon</title>
    <path fill="#3FA9F5" d="M329.704,352.685c29.124,0,58.247,0.519,87.348-0.153c25.252-0.579,49.972-4.852,73.099-15.807 c29.749-14.096,46.206-36.632,45.321-70.56c-0.437-16.669-0.201-33.35-0.035-50.019c0.236-23.788,13.269-38.899,36.656-43.857 c42.417-8.996,84.94-9.491,127.509-1.853c9.444,1.688,18.888,4.592,27.695,8.405c18.76,8.134,27.614,23.091,28.191,43.55 c1.275,44.766,2.703,89.532,4.533,134.286c1.558,37.883,6.139,75.094,20.943,110.734c13.837,33.291,11.498,67.692,1.7,101.726 c-11.581,40.209-17.944,81.055-15.559,122.987c0.578,10.166,1.074,20.483,3.176,30.399c5.632,26.551-13.659,42.546-41.944,31.639 c-26.468-10.212-38.391-30.47-38.686-57.952c-0.378-34.591-0.306-69.191,0.012-103.781c0.059-6.434-2.208-9.739-7.696-12.656 c-44.755-23.834-89.415-47.869-133.98-72.059c-4.758-2.585-8.394-2.42-13.08,0.106c-44.872,24.154-89.803,48.201-134.888,71.942 c-5.973,3.14-7.78,6.859-7.721,13.398c0.319,33.599,0.165,67.197,0.13,100.795c-0.012,15.487-3.187,30.115-12.112,43.124 c-8.405,12.267-20.104,19.008-34.767,20.59c-16.516,1.783-28.085-9.893-28.238-28.958c-0.224-29.62,0.012-59.239-0.201-88.847 c-0.024-3.412-1.169-9.35-2.751-9.704c-3.518-0.767-8.063,0.496-11.451,2.314c-25.145,13.517-49.594,28.439-75.283,40.776 c-18.369,8.819-38.45,8.451-56.913-1.275c-5.749-3.034-11.003-8.819-14.155-14.615c-6.493-11.925-2.609-22.95,9.68-31.403 c33.799-23.256,67.68-46.417,101.526-69.615c8.205-5.619,16.492-11.132,24.52-17.011c1.724-1.263,2.432-3.896,3.601-5.903 c-2.396-0.555-4.946-1.948-7.166-1.547c-23.929,4.427-47.67,10.129-71.741,13.375c-13.281,1.783-27.247,0.638-40.622-1.192 c-10.129-1.393-17.661-8.582-22.749-17.802c-8.996-16.303-3.459-32.382,14.119-38.462c32.642-11.274,65.472-21.982,98.22-32.949 c18.605-6.233,37.258-12.372,55.768-18.889c2.574-0.909,4.474-3.742,6.694-5.678c-2.656-1.44-5.206-3.872-7.98-4.179 c-18.05-1.948-36.219-2.892-54.21-5.277c-10.991-1.452-22.206-3.636-32.441-7.697c-14.202-5.631-22.218-17.177-23.469-32.748 c-1.393-17.366,7.815-27.447,25.287-27.518c31.355-0.118,62.722-0.035,94.077-0.035 C329.704,352.768,329.704,352.72,329.704,352.685">
      <title>Hand</title>
    </path>
    <path d="M 505.202 637.949 H 576.73 V 728.732 H 505.202 V 637.949 Z" fill="#FF9C1A">
      <title>Window</title>
    </path>
  </g>
</svg>